<svg xmlns="http://www.w3.org/2000/svg" viewBox="0 0 1000 1000">
                <path fill="#488548" d="M186.87 343.77c42.38-129.53 66.15-147.17 152.66-146.8 78.42.35 76.88-1.33 180.2-1.23 141.4.14 125.52-16.76 237.06 89.75 9 8.6 36.1 36.2 43.4 43.1 14.8 14.1 25 17.1 28.7 27.4 2 5.5 2 17.5 1.5 27.4-3.9 23.8-40.5 35.1-80.9 39.1-70.5 6.9-153.3 13.9-196.4 17.1-12.4.9-29.2 1.3-38 2.4-.2 9.7 8.6 18.1 13.4 24.3 8.4 11 26.2 20.9 47.9 29.1 1.3 4 2 13.6.8 19.8-9.4 1.4-27 .7-46.8-4.7-19.1-5.2-41.9-15.5-66.2-35.1-12.1-9.7-15.3-12.2-30.5-27.4-22 1.5-26.3 3.5-77 6-66.6 3.2-110.8 9-140.4 4.9-38.2-5.3-50.8-19.3-51.5-38.7-.2-4.2 0-2.6-.1-21 3.2-18.5 14.1-32.6 21.7-55.8z"/>
                <path fill="#7cc724" d="M186.87 325.22c42.38-129.53 66.15-147.18 152.66-146.8 78.42.34 76.88-1.33 180.2-1.23 141.4.1 125.52-16.8 237.06 89.7 9 8.7 36.1 40.2 43.4 47.1 64 60.9 12.1 83.7-50.7 89.9-70.5 6.9-153.3 13.9-196.4 17.2-12.4.9-29.2 1.3-38 2.3-.2 9.7 8.6 18 13.5 24.3 8.4 11 14 16.5 25.7 27.9 5.4 5.2 27.2 19.7 21.2 20.6-9.4 1.4-25.2 1.1-45-4.2-19.1-5.2-41.9-15.5-66.2-35.1-12.1-9.7-15.3-12.2-30.5-27.4-22 1.5-26.3 3.5-77 6-66.6 3.2-110.8 9-140.4 4.9-79.1-11-48.2-59.2-29.8-115.5z"/>
                <path fill="#069" d="M362.3 407.96L374.07 345l35.6-38.53 88.92-141.02c31.8 46.7 58.6 70.9 92.3 112.2l68.9 105.2-121.2 7.34c-85.5 5.3-62.6 6.3-87.3 3-14.9-2.1-44.9 2.4-44.9 2.4l-44.2 12.3z"/>
                <path fill="#fff" d="M361.63 407.93l146.57-208.6c-4.22 70.62 5.98 141.68-21.93 209.2-41.92-4.4-84.3-2.07-124.64-.6zM660.4 383L511.67 200.43c.66 82.1 7.05 125.22 26.14 192.13L660.4 383z"/>
                <path fill="#fff" d="M468.42 74.36c-42.2 44.26-93.45 99.3-123.26 128.8-1.14 76.47-5.5 146.72-8.93 218.83 63.56-80.4 95.97-128.3 173.14-233.4 59.8 71.7 117.2 142.5 181 204.6-43.6-72.3-89.4-137.5-125.73-200.5L468.42 74.3zM200.6 733.06h-31.3v-252h31.3v252zm36.45-129.1c.22-6.1 1.58-11.8 4.08-17.13s5.8-10 9.94-14c4.13-4.04 9.02-7.2 14.67-9.47 5.65-2.28 11.63-3.42 17.93-3.42 8.25 0 16.08 1.84 23.47 5.54v-4.24h30.97v171.8h-30.9v-4.23c-7.6 3.5-15.4 5.3-23.4 5.3-6.3 0-12.3-1.1-17.9-3.4-5.6-2.2-10.6-5.4-14.8-9.4s-7.6-8.7-10.1-14.2c-2.5-5.4-3.7-11.2-3.7-17.2V604zm30 84.43c0 4.3 1.62 8 4.88 11.2 3.26 3.1 7.17 4.7 11.74 4.7 2.17 0 4.46-.5 6.85-1.3 2.4-.9 4.56-2 6.5-3.4 1.97-1.4 3.6-3.1 4.9-5.1 1.3-2 1.96-4 1.96-6.2V603c0-2.18-.65-4.24-1.96-6.2-1.3-1.96-2.93-3.64-4.9-5.05-1.94-1.42-4.1-2.5-6.5-3.26-2.4-.8-4.68-1.2-6.85-1.2-4.56 0-8.48 1.5-11.74 4.5s-4.9 6.7-4.9 11.1v85.4zm157.15-43.1v40.1h.3v2.2c0 4.5 1.62 8.5 4.9 11.9 3.24 3.4 7.26 5 12.05 5 1.08 0 2.12-.1 3.1-.3.97-.2 2-.6 3.08-1v30c-1.08 0-2.16 0-3.25.1-1.1.1-2.18.1-3.26.1-6.52 0-12.6-1.2-18.26-3.5-5.67-2.3-10.6-5.5-14.85-9.6-4.2-4.2-7.6-8.9-10.2-14.4-2.6-5.5-4.1-11.3-4.6-17.6h-.3V597h-23.2v-27.7h23.2V481h31.3v88.35h23.5v27.7h-23.4v48.27zm148.32-32.6V688c0 6.3-1.25 12.18-3.75 17.6-2.5 5.45-5.77 10.17-9.8 14.2-4 4-8.8 7.22-14.33 9.6-5.54 2.4-11.46 3.6-17.77 3.6-6.3 0-12.16-1.2-17.6-3.6-5.43-2.38-10.15-5.6-14.18-9.6-4.1-4.02-7.3-8.75-9.8-14.2-2.5-5.42-3.8-11.3-3.8-17.6v-86.7c.2-6.1 1.5-11.85 3.9-17.3 2.4-5.42 5.6-10.14 9.8-14.17 4.1-4.02 8.9-7.17 14.3-9.45 5.4-2.27 11.2-3.42 17.3-3.42 6.1 0 11.9 1.13 17.4 3.42 5.5 2.28 10.4 5.43 14.5 9.45s7.4 8.75 9.8 14.18c2.4 5.5 3.7 11.2 3.9 17.3v11.4zm-29.34-12.4c0-4.4-1.57-8.1-4.7-11.3-3.17-3.2-6.93-4.8-11.28-4.8-4.34 0-8.1 1.5-11.24 4.7-3.17 3.1-4.74 6.9-4.74 11.2V687c0 4.36 1.57 8.1 4.72 11.25 3.14 3.14 6.9 4.72 11.23 4.72 4.35 0 8.1-1.57 11.26-4.73 3.14-3.16 4.7-6.9 4.7-11.25v-86.8zm64.7-39.1h31.63l-.6 172.1h-31.7l.7-172.2zm15.98-27.1c-5 0-9.14-1.7-12.4-5.1-3.26-3.4-4.9-7.5-4.9-12.2s1.53-8.9 4.57-12.3c3.04-3.4 7.06-5.1 12.06-5.1 4.8 0 8.9 1.7 12.5 5s5.3 7.4 5.3 12.2c0 4.8-1.7 8.9-5.1 12.2-3.4 3.3-7.5 5-12.2 5zm78.86 148.2h-31.3v-237h31.3v237zm131.07-18.5V688c0 6.3-1.4 12.17-4.1 17.6-2.7 5.44-6.3 10.17-10.7 14.18-4.4 4.03-9.6 7.24-15.6 9.63-6.1 2.4-12.4 3.6-19 3.6-6.9 0-13.3-1.2-19.2-3.6-5.9-2.4-11.1-5.6-15.5-9.6s-7.9-8.7-10.7-14.2c-2.8-5.4-4.1-11.3-4.1-17.6v-86.4c.2-6 1.6-11.8 4.2-17.2 2.6-5.4 6.1-10.1 10.6-14.2 4.5-4 9.7-7.1 15.6-9.4 5.9-2.2 12.2-3.4 18.8-3.4 6.6 0 12.9 1.2 18.8 3.4 5.9 2.3 11.1 5.5 15.6 9.5 4.5 4.1 8 8.8 10.6 14.2 2.6 5.5 4 11.2 4.2 17.3v37.5H767v47.9c0 4.4 1.7 8.1 5.14 11.3 3.4 3.2 7.5 4.7 12.24 4.7s8.8-1.5 12.24-4.7c3.4-3.1 5.12-6.9 5.12-11.2V664h31.6zm-66.3-49.6h34.7v-13.7c0-4.4-1.7-8.1-5.2-11.3s-7.5-4.8-12.3-4.8c-4.7 0-8.8 1.5-12.3 4.7-3.5 3.1-5.2 6.9-5.2 11.2V614z"/>
                <path fill="#7cc724" d="M245.1 854.5c2.4 3.7 4.52 7.02 6.37 9.96 1.84 2.93 3.36 5.65 4.56 8.15 1.2 2.5 2.1 5 2.77 7.4.65 2.4.98 5 .98 7.8 0 4.4-1.14 8.8-3.42 13.2-2.3 4.5-5.38 8.5-9.3 12.1-3.9 3.6-8.58 6.6-14 9-5.45 2.4-11.32 3.6-17.62 3.6-6.3 0-12.17-1-17.6-3.1-5.43-2-10.16-5.3-14.18-9.8-4.03-4.4-7.18-10-9.46-16.7-2.28-6.7-3.42-14.8-3.42-24.1h28.7v4.6c0 2.4.2 4.9.64 7.5.44 2.6 1.25 5 2.44 7.2 1.2 2.2 2.83 4 4.9 5.4 2.06 1.5 4.72 2.2 7.98 2.2 4.35 0 7.72-1.4 10.1-4.2 2.4-2.8 3.6-5.4 3.6-7.8 0-1.9-.82-4.4-2.45-7.3-1.7-2.9-3.4-5.3-5.1-7.3l-38.2-51.5c-4.2-5.2-7.3-10.52-9.5-16s-3.3-11.1-3.3-16.9c0-4.3 1.1-8.7 3.4-13.2 2.2-4.42 5.3-8.5 9.3-12.2 3.9-3.7 8.5-6.7 14-8.95 5.4-2.3 11.3-3.43 17.6-3.43 6.3 0 12.1 1.1 17.6 3.3 5.4 2.15 10.1 5.4 14.1 9.8s7.2 9.9 9.5 16.6c2.3 6.73 3.4 14.8 3.4 24.1H231V799c0-2.4-.2-4.9-.65-7.5-.43-2.6-1.25-5-2.44-7-1.2-2.1-2.8-3.8-4.9-5.25-2-1.4-4.7-2.1-7.9-2.1-4.3 0-7.7 1.37-10.1 4.1-2.4 2.7-3.5 5.37-3.5 7.97 0 1.8.8 4.1 2.5 7 1.7 3 3.3 5.5 5.1 7.7l36 51.04zm128.68 12.4v13.37c0 6.3-1.2 12.17-3.58 17.6-2.4 5.44-5.6 10.17-9.62 14.2-4.02 4-8.8 7.2-14.34 9.6-5.55 2.4-11.47 3.6-17.77 3.6-6.3 0-12.17-1.2-17.6-3.6-5.44-2.4-10.16-5.6-14.18-9.6-4.1-4.03-7.3-8.76-9.8-14.2-2.5-5.43-3.8-11.3-3.8-17.6v-86.7c.2-6.1 1.5-11.86 3.9-17.3 2.4-5.43 5.6-10.15 9.6-14.18 4-4.1 8.7-7.2 14.1-9.5s11.3-3.4 17.6-3.4c6.1 0 11.8 1.1 17.3 3.4 5.4 2.3 10.2 5.4 14.3 9.4 4.1 4 7.4 8.7 9.7 14.1 2.4 5.4 3.7 11.2 3.9 17.3v10.1h-29v-11.1c0-4.4-1.6-8.1-4.7-11.3-3.2-3.2-6.9-4.7-11.3-4.7s-8.1 1.5-11.3 4.7c-3.2 3.1-4.7 6.9-4.7 11.2v86.4c0 4.3 1.5 8.1 4.7 11.2 3.1 3.2 6.9 4.7 11.2 4.7s8.1-1.6 11.2-4.8 4.7-6.9 4.7-11.3v-12.1h29zm119.48-61.93v75.3c0 6.3-1.25 12.17-3.75 17.6-2.5 5.44-5.7 10.17-9.7 14.2-4 4-8.8 7.2-14.3 9.6-5.5 2.4-11.4 3.6-17.7 3.6-6.3 0-12.2-1.2-17.6-3.6-5.4-2.4-10.1-5.6-14.2-9.6-4-4.03-7.3-8.76-9.7-14.2-2.5-5.43-3.7-11.3-3.7-17.6v-86.7c.3-6.1 1.6-11.86 4-17.3 2.4-5.43 5.7-10.15 9.8-14.18 4.2-4.1 8.9-7.2 14.4-9.5s11.2-3.4 17.3-3.4c6.1 0 11.9 1.1 17.4 3.4 5.6 2.3 10.4 5.4 14.5 9.4 4.2 4 7.4 8.7 9.8 14.1 2.4 5.4 3.7 11.2 3.9 17.3v11.4zm-29.34-12.4c0-4.34-1.57-8.1-4.72-11.24-3.15-3.15-6.9-4.73-11.25-4.73s-8.1 1.58-11.25 4.73c-3.15 3.15-4.72 6.9-4.72 11.24v86.72c0 4.3 1.57 8.1 4.72 11.2 3.15 3.1 6.9 4.7 11.25 4.7s8.1-1.6 11.25-4.7c3.15-3.2 4.72-6.9 4.72-11.3v-86.7zm161.35-39.12v122.58c0 6.96-1.3 13.43-3.9 19.4-2.62 5.98-6.2 11.2-10.77 15.65-4.57 4.45-9.9 7.98-15.98 10.6-6.08 2.6-12.5 3.9-19.23 3.9-7 0-13.5-1.3-19.4-3.9-6-2.62-11.2-6.15-15.7-10.6-4.5-4.46-8-9.67-10.6-15.65-2.6-5.97-3.9-12.44-3.9-19.4V753.45h32.6v121.28c0 5 1.7 9.18 5 12.55 3.3 3.37 7.4 5.05 12.2 5.05 5 0 9.1-1.7 12.5-5.05 3.3-3.37 5-7.55 5-12.55V753.45H625zm77.5 85.85v40.1h.33v2.28c0 4.57 1.63 8.53 4.9 11.9 3.25 3.37 7.27 5.06 12.05 5.06 1.1 0 2.12-.1 3.1-.33.98-.2 2-.5 3.1-.9v30c-1.1 0-2.18.1-3.26.2-1.1.1-2.2.2-3.3.2-6.5 0-12.6-1.1-18.3-3.4-5.7-2.3-10.6-5.5-14.9-9.6-4.3-4.1-7.7-8.9-10.3-14.3-2.6-5.4-4.2-11.3-4.6-17.6h-.4v-91.6h-23.1v-27.8h23.1V695h31.3v68.42H726v27.7h-23.4v48.25zm132.1 16.85v24.12c0 6.3-1.26 12.17-3.76 17.6-2.5 5.44-5.7 10.17-9.7 14.2-4 4-8.8 7.2-14.3 9.6-5.5 2.4-11.3 3.6-17.4 3.6-6.3 0-12.1-1.2-17.6-3.6-5.4-2.4-10.1-5.6-14.2-9.6-4-4.03-7.2-8.76-9.7-14.2-2.5-5.43-3.8-11.3-3.8-17.6v-86.4c.2-6.08 1.6-11.83 3.9-17.27 2.4-5.43 5.7-10.15 9.8-14.18 4.2-4.02 8.9-7.17 14.4-9.45 5.4-2.3 11.2-3.43 17.3-3.43s11.9 1.14 17.3 3.43c5.5 2.28 10.2 5.43 14.4 9.45 4.2 4.03 7.4 8.75 9.8 14.18 2.4 5.44 3.7 11.2 3.9 17.27v37.5h-61v47.92c0 4.3 1.6 8.1 4.7 11.2 3.2 3.1 6.9 4.7 11.3 4.7s8.1-1.6 11.3-4.7c3.2-3.2 4.8-6.9 4.8-11.3v-23.1h29zM773.9 806.6h31.93v-13.7c0-4.35-1.58-8.1-4.73-11.25-3.14-3.15-6.9-4.73-11.23-4.73-4.35 0-8.1 1.58-11.25 4.73-3.15 3.15-4.73 6.9-4.73 11.24v13.7z"/>
</svg>
